PathFileType	4	(X/Y/Z)	Patient4_TMGait_0pt2_03_right_02.trc.trc
DataRate	CameraRate	NumFrames	NumMarkers	Units	OrigDataRate	OrigDataStartFrame	OrigNumFrames
47.457627118644	47.457627118644	4	33	mm	47.457627118644	89	       141
Frame#	Time	Sacral			L.Shoulder			Chest			R.Shoulder			Neck			R.ASIS			L.ASIS			R.Thigh.Superior			R.Thigh.Lateral			R.Thigh.Inferior			R.Patella			L.Thigh.Superior			L.Thigh.Lateral			L.Thigh.Inferior			L.Patella			L.Shank.Superior			L.Shank.Lateral			L.Shank.Inferior			R.Shank.Superior			R.Shank.Lateral			R.Shank.Inferior			R.Heel			R.Midfoot.Superior			R.Midfoot.Lateral			R.Toe			L.Heel			L.Midfoot.Lateral			L.Midfoot.Superior			L.Toe			L.Elbow			L.Wrist			R.Elbow			R.Wrist			
		X1	Y1	Z1	X2	Y2	Z2	X3	Y3	Z3	X4	Y4	Z4	X5	Y5	Z5	X6	Y6	Z6	X7	Y7	Z7	X8	Y8	Z8	X9	Y9	Z9	X10	Y10	Z10	X11	Y11	Z11	X12	Y12	Z12	X13	Y13	Z13	X14	Y14	Z14	X15	Y15	Z15	X16	Y16	Z16	X17	Y17	Z17	X18	Y18	Z18	X19	Y19	Z19	X20	Y20	Z20	X21	Y21	Z21	X22	Y22	Z22	X23	Y23	Z23	X24	Y24	Z24	X25	Y25	Z25	X26	Y26	Z26	X27	Y27	Z27	X28	Y28	Z28	X29	Y29	Z29	X30	Y30	Z30	X31	Y31	Z31	X32	Y32	Z32	X33	Y33	Z33	

89	5.984285714286	757.097247338883	1004.965902649063	493.609202314042	909.867224442673	1429.028370475307	287.274845327368	1035.459547533038	1359.236804836736	430.895871366515	980.641781316671	1437.904340040538	611.663650599315	913.489807630149	1491.633899179120	444.658989752042	996.409666424988	934.091996137268	583.352009698222	952.931405718741	958.452575795923	312.385592176601	992.213628426127	720.637427831961	559.339824927333	895.364287793335	626.363775574006	631.982068608139	951.019720940528	558.800369541942	549.820744705892	932.580093384260	468.161798272294	560.590430883238	1023.792497239902	763.448021162392	346.937549533040	957.432929464198	633.303981056094	281.362110351190	1055.641745230434	569.708500287129	342.189267200699	1068.066052334920	496.159282094206	344.601251498186	1038.913452324778	422.423234677281	335.788258862268	949.547422234334	309.376281603543	282.703631743262	1002.923869667554	195.036871092922	344.918145848576	880.852698196683	389.465156697036	573.421894275112	790.910822676610	310.100293524497	648.386002559476	799.377031293324	205.600154201617	587.020850577087	627.620351009029	64.560951623778	579.450058106749	805.980859491082	98.939479405129	599.077581139004	716.415423320282	46.842296069929	645.137452571439	921.636882677720	37.387942810032	616.147718496814	875.335044590452	39.586750858176	381.309429340907	948.540217285340	36.928784709071	300.587618695216	1032.529748422297	97.329018592971	326.602920642173	1159.808890061542	44.582798758145	295.209318902023	806.766427777217	1098.084844558846	169.811172593153	789.461421877547	836.431240324412	183.501321828730	1190.069550576074	1176.261693558434	715.131433743002	1429.885919354259	1232.337244578912	636.554000470183	
90	6.005357142857	758.038777613327	1004.939798507974	485.478606305903	912.529307902046	1429.826434013183	281.926031956939	1036.135193397701	1360.100284559999	427.297004262570	978.468711508790	1438.420490823850	607.356683830716	913.336685919261	1492.094506785389	439.684370674393	996.206488685120	934.902188175957	578.350543994635	956.397953836603	958.772053118174	306.994218553092	992.877471464526	721.211121522708	555.879876609886	895.568627251333	627.260390904849	628.340735421203	952.602243797514	558.986554857094	547.537531682959	934.313824027047	467.622799415893	559.299740691708	1026.275912827400	763.010191094872	342.598661053677	959.674901552162	632.680563976299	277.656213236024	1057.325892750629	568.950213325182	339.193135176127	1069.227612929579	495.133702127552	342.183440136109	1039.218217655607	421.306714020360	333.825703123539	948.866247405988	308.890317562003	281.166340948602	1000.548547980978	194.464888191304	344.388673274879	881.267802260020	389.662753090483	572.155844984863	789.623274983759	312.132239330808	646.991095315702	797.678922414310	206.801379271876	586.900053499644	624.230779593786	67.577467309791	579.669910570576	803.194553182100	99.271337281907	599.296529409363	712.817249666049	48.307065751649	645.305892632937	917.690484271286	37.277958241712	616.159326117437	871.222272146682	39.739160973894	381.320127223456	944.420836265231	36.982486486201	300.643617022296	1028.583152739987	97.153379958165	326.672915147159	1155.791094389481	43.883219329254	295.190403656499	816.946907164948	1097.340062038070	160.838622928336	805.312035020282	835.292314321429	172.783807489242	1183.263679562418	1171.641155236383	712.321131711354	1426.978201014551	1217.404123646741	639.177202794535	
91	6.026428571429	758.903530943650	1004.911907930953	477.260447230133	915.161591322402	1430.636192034613	276.519913852275	1036.636718865476	1361.005811014892	423.713506892500	976.008838672106	1438.977777027864	602.979683851615	913.017520370157	1492.564902990287	434.590582535048	995.829241892780	935.768702847061	573.320739673464	959.805434643224	959.122191253968	301.639182699719	994.091311459866	721.942780794112	552.383455414612	896.684567956787	628.033557063821	624.664085853993	955.400588420370	559.219952305603	545.255786557964	937.462830520878	466.909691809518	558.195993945133	1028.558933398957	762.433348737165	338.071335211791	961.509409437354	632.031680642244	273.841301749587	1058.570580832777	568.101620323990	336.020874927872	1069.874570081743	494.092631825815	339.602256610574	1039.098025268844	420.208779003196	331.688130437387	947.813964738049	308.345103878168	279.481570959243	997.998481058154	193.921531673047	343.733659902495	882.856575004932	389.811734360100	570.994506651968	789.259373317938	314.469375002239	645.584710053914	796.677614608677	208.264832058628	586.864194553499	621.183392950989	71.468363488180	579.880329130792	800.766094781830	99.727017556108	599.575963221117	709.393819695430	50.278456615708	645.480976414422	913.725326675678	37.151622235805	616.193789227343	867.087274986427	39.868636609508	381.299859416246	940.282181438327	36.998683554045	300.659125554908	1024.600714852762	96.986431809030	326.677291544010	1151.748702615321	43.247334532907	295.169250247827	827.986759094097	1096.470740317010	152.080065469217	822.662488924583	834.147284965232	162.568834460354	1175.058272451807	1166.253595228719	709.620998297190	1422.415479464006	1199.739479796528	642.472199012306	
92	6.047500000000	759.624100158158	1004.843063521342	469.014913241574	917.764178797872	1431.389888807553	271.087506669813	1036.961737234382	1361.872067183740	420.158825614560	973.292755981528	1439.501098430345	598.549948694677	912.558229710539	1492.989123781893	429.402561164684	995.234409035991	936.621724813272	568.296362215269	963.057343920006	959.449251398302	296.354665974303	995.932962479142	722.832766043247	548.856646270584	898.876293926152	628.637871483611	620.984523501644	959.593444351875	559.507907917105	542.977115207030	942.223088013763	466.031248759912	557.276168366114	1030.596315256649	761.715176522407	333.386531784924	962.947297942373	631.344411649234	269.923968179842	1059.407112101648	567.173322650869	332.688415843119	1070.072614967189	493.032941460248	336.862582671886	1038.604654965293	419.114639705080	329.384217810837	946.426316006934	307.741203127942	277.648668071051	995.273426398319	193.393435264937	342.961369078350	885.814516861050	389.916844322490	569.931583086964	790.018975473209	317.174250698819	644.158527633525	796.503954957974	210.073621687023	586.886426292132	618.602094177480	76.489581693855	580.022953631113	798.755319195567	100.406705524653	599.903251861481	706.190931424971	52.957164957078	645.617028952226	909.710682423735	36.983780656381	616.260700354977	862.927428195769	39.962384356166	381.246377260628	936.120675247140	36.975740098954	300.628175757531	1020.571886561975	96.833463232447	326.617082085563	1147.677767768680	42.702642383726	295.144396473065	839.876623999279	1095.475686825171	143.595073615910	841.538890349593	833.034620231381	152.968560003932	1165.379237461955	1160.131196736807	707.043307951699	1415.817378465406	1179.352628730924	646.379801462951	
